<?xml version="1.0" standalone="no"?>
<!DOCTYPE svg PUBLIC "-//W3C//DTD SVG 20010904//EN"
 "http://www.w3.org/TR/2001/REC-SVG-20010904/DTD/svg10.dtd">
<svg version="1.0" xmlns="http://www.w3.org/2000/svg"
 width="280.000000pt" height="207.000000pt" viewBox="0 0 280.000000 207.000000"
 preserveAspectRatio="xMidYMid meet">
<metadata>
Created by potrace 1.10, written by Peter Selinger 2001-2011
</metadata>
<g transform="translate(0.000000,207.000000) scale(0.100000,-0.100000)"
fill="#000000" stroke="none">
<path d="M1320 1780 l0 -160 40 0 40 0 0 160 0 160 -40 0 -40 0 0 -160z m60 0
c0 -133 -1 -140 -20 -140 -19 0 -20 7 -20 140 0 133 1 140 20 140 19 0 20 -7
20 -140z"/>
<path d="M1082 1743 c52 -110 88 -165 88 -133 0 22 -65 140 -78 140 -8 0 -12
-3 -10 -7z"/>
<path d="M1585 1680 c-39 -78 -40 -80 -22 -79 6 0 27 31 45 68 35 75 37 81 22
81 -5 0 -26 -31 -45 -70z"/>
<path d="M970 1633 c1 -17 71 -83 81 -77 7 4 -5 22 -27 45 -36 37 -54 48 -54
32z"/>
<path d="M1721 1622 c-8 -9 -23 -27 -34 -39 -11 -13 -17 -26 -14 -30 8 -7 87
65 87 79 0 14 -25 8 -39 -10z"/>
<path d="M1314 1565 c-15 -23 -15 -27 0 -50 11 -17 26 -25 44 -25 35 0 52 16
52 50 0 34 -17 50 -52 50 -18 0 -33 -8 -44 -25z m71 -25 c0 -18 -6 -26 -23
-28 -24 -4 -38 18 -28 44 3 9 15 14 28 12 17 -2 23 -10 23 -28z"/>
<path d="M1111 1466 c-30 -6 -56 -17 -59 -24 -5 -16 12 -15 71 3 l48 14 79
-57 c44 -31 80 -59 80 -62 0 -4 -526 -150 -572 -158 -15 -3 -157 107 -165 127
-2 3 78 26 177 49 99 24 180 48 180 53 0 13 2 13 -207 -38 -106 -26 -193 -52
-192 -57 0 -6 38 -40 84 -76 46 -36 84 -68 85 -72 0 -4 -38 -39 -85 -79 -47
-40 -84 -77 -82 -82 2 -6 50 -22 107 -37 58 -15 198 -52 311 -81 l206 -54 96
74 96 73 28 -22 c72 -56 149 -110 159 -110 6 0 60 14 120 31 60 17 172 48 249
70 231 64 255 72 255 78 0 3 -11 13 -24 21 -22 14 -131 94 -148 109 -5 4 33
38 82 75 50 37 88 71 85 76 -3 4 -17 10 -32 12 -16 3 -73 18 -128 33 -466 129
-464 129 -484 113 -10 -7 -47 -33 -81 -58 -34 -25 -69 -49 -76 -55 -16 -11
-10 -15 -117 68 -41 31 -79 56 -83 56 -5 -1 -33 -6 -63 -13z m697 -77 c125
-33 251 -68 280 -76 l54 -15 -81 -59 c-44 -32 -84 -59 -88 -59 -4 0 -100 25
-213 55 -113 30 -245 66 -294 78 l-89 23 51 33 c28 18 68 46 89 62 20 16 43
27 50 25 8 -3 116 -33 241 -67z m-316 -105 c248 -66 313 -83 372 -98 57 -15
82 -26 58 -26 -23 0 -63 -20 -57 -29 3 -6 28 -2 60 9 l54 19 59 -47 c33 -26
69 -54 82 -63 21 -14 19 -15 -56 -37 -44 -12 -175 -49 -292 -82 l-213 -60 -77
55 c-42 30 -81 56 -86 58 -19 7 -4 13 144 52 180 47 198 54 181 64 -7 5 -29 2
-49 -5 -21 -7 -90 -26 -155 -43 -64 -17 -128 -36 -141 -41 -18 -6 -39 -4 -71
7 -26 8 -153 46 -283 83 -198 57 -232 69 -207 75 31 8 353 94 465 125 36 10
68 18 72 19 3 1 66 -15 140 -35z m-565 -179 c87 -26 181 -53 208 -61 28 -7 85
-24 127 -37 l78 -23 -85 -62 -85 -63 -93 24 c-50 13 -184 48 -295 77 l-204 54
44 35 c23 20 61 53 83 73 22 21 45 36 52 33 6 -2 83 -25 170 -50z"/>
<path d="M1778 1123 c-21 -5 -24 -23 -4 -23 22 0 46 11 46 21 0 9 -13 10 -42
2z"/>
<path d="M988 1433 c-29 -7 -21 -25 10 -21 15 2 26 7 25 13 -2 12 -12 14 -35
8z"/>
<path d="M1967 733 c-4 -91 -7 -221 -7 -288 l0 -123 -102 -27 c-57 -15 -150
-40 -208 -56 -246 -66 -293 -78 -299 -75 -6 4 -76 23 -474 126 -60 16 -111 31
-114 33 -3 3 -6 103 -6 223 -2 165 -5 218 -15 222 -10 3 -12 -44 -10 -229 l3
-233 60 -17 c33 -9 116 -31 185 -49 69 -18 183 -48 253 -67 l128 -34 127 34
c70 19 208 56 308 83 l181 48 6 170 c9 237 9 426 -1 426 -5 0 -12 -75 -15
-167z"/>
<path d="M732 853 c2 -21 8 -38 13 -38 6 0 11 17 13 38 3 29 0 37 -13 37 -13
0 -16 -8 -13 -37z"/>
<path d="M1340 606 c0 -240 2 -276 15 -276 13 0 15 34 13 272 -2 206 -6 272
-15 276 -10 3 -13 -56 -13 -272z"/>
<path d="M1826 665 c-17 -46 10 -89 40 -65 23 20 15 74 -12 78 -13 2 -24 -4
-28 -13z"/>
<path d="M1473 563 c-28 -11 -8 -73 24 -73 18 0 33 33 26 58 -5 21 -23 26 -50
15z"/>
<path d="M1662 524 c-12 -8 -31 -33 -42 -54 -23 -46 -24 -50 -7 -50 6 1 21 20
32 43 25 52 56 60 81 23 18 -29 34 -34 34 -12 0 14 -54 66 -69 66 -3 0 -17 -7
-29 -16z"/>
<path d="M1340 256 c0 -26 4 -36 16 -36 11 0 14 8 12 32 -4 46 -28 49 -28 4z"/>
</g>
</svg>
